<svg width="18" height="18" viewBox="0 0 18 18" fill="none" xmlns="http://www.w3.org/2000/svg">
<path d="M9.85 1C9.85 0.530558 9.46944 0.15 9 0.15C8.53056 0.15 8.15 0.530558 8.15 1H9.85ZM8.15 2.65517C8.15 3.12461 8.53056 3.50517 9 3.50517C9.46944 3.50517 9.85 3.12461 9.85 2.65517H8.15ZM15.258 3.94419C15.5899 3.61225 15.5899 3.07406 15.258 2.74211C14.9261 2.41016 14.3879 2.41015 14.0559 2.74209L15.258 3.94419ZM12.8855 3.91247C12.5535 4.24441 12.5535 4.7826 12.8855 5.11455C13.2174 5.4465 13.7556 5.44651 14.0875 5.11457L12.8855 3.91247ZM17 9.85C17.4694 9.85 17.85 9.46944 17.85 9C17.85 8.53056 17.4694 8.15 17 8.15V9.85ZM15.3448 8.15C14.8754 8.15 14.4948 8.53056 14.4948 9C14.4948 9.46944 14.8754 9.85 15.3448 9.85V8.15ZM14.0559 15.2579C14.3879 15.5898 14.9261 15.5898 15.258 15.2578C15.5899 14.9259 15.5899 14.3877 15.258 14.0558L14.0559 15.2579ZM14.0875 12.8854C13.7556 12.5535 13.2174 12.5535 12.8854 12.8855C12.5535 13.2175 12.5535 13.7557 12.8855 14.0876L14.0875 12.8854ZM9.85 15.3448C9.85 14.8754 9.46944 14.4948 9 14.4948C8.53056 14.4948 8.15 14.8754 8.15 15.3448H9.85ZM8.15 17C8.15 17.4694 8.53056 17.85 9 17.85C9.46944 17.85 9.85 17.4694 9.85 17H8.15ZM5.11462 14.0876C5.44658 13.7556 5.44659 13.2174 5.11466 12.8855C4.78272 12.5535 4.24453 12.5535 3.91258 12.8855L5.11462 14.0876ZM2.74219 14.0558C2.41024 14.3877 2.41022 14.9259 2.74216 15.2578C3.07409 15.5898 3.61228 15.5898 3.94424 15.2579L2.74219 14.0558ZM2.65517 9.85C3.12461 9.85 3.50517 9.46944 3.50517 9C3.50517 8.53056 3.12461 8.15 2.65517 8.15V9.85ZM1 8.15C0.530558 8.15 0.15 8.53056 0.15 9C0.15 9.46944 0.530558 9.85 1 9.85V8.15ZM3.91256 5.11456C4.2445 5.44651 4.78269 5.44651 5.11464 5.11456C5.44659 4.78262 5.44659 4.24443 5.11464 3.91248L3.91256 5.11456ZM3.94426 2.7421C3.61231 2.41015 3.07412 2.41015 2.74218 2.7421C2.41023 3.07404 2.41023 3.61223 2.74218 3.94418L3.94426 2.7421ZM8.15 1V2.65517H9.85V1H8.15ZM14.0559 2.74209L12.8855 3.91247L14.0875 5.11457L15.258 3.94419L14.0559 2.74209ZM17 8.15H15.3448V9.85H17V8.15ZM15.258 14.0558L14.0875 12.8854L12.8855 14.0876L14.0559 15.2579L15.258 14.0558ZM8.15 15.3448V17H9.85V15.3448H8.15ZM3.91258 12.8855L2.74219 14.0558L3.94424 15.2579L5.11462 14.0876L3.91258 12.8855ZM2.65517 8.15H1V9.85H2.65517V8.15ZM5.11464 3.91248L3.94426 2.7421L2.74218 3.94418L3.91256 5.11456L5.11464 3.91248Z" fill="#127FFF"/>
</svg>
