<svg width="48" height="49" viewBox="0 0 48 49" fill="none" xmlns="http://www.w3.org/2000/svg">
<circle cx="24" cy="24.5" r="24" fill="#3592FF"/>
<path d="M26.2203 14.6241C24.8004 15.4757 23.9626 17.0033 23.9626 18.622C23.9626 19.4736 24.2952 20.3252 24.7173 21.0858C25.0499 21.7683 25.2226 22.958 24.0457 23.5495C23.2079 24.0631 22.1206 23.7186 21.6217 22.867C21.1164 22.1844 20.5344 21.5083 19.7797 20.9948C18.3598 20.1432 16.684 20.1432 15.2578 20.9948C13.8379 21.8463 13 23.374 13 24.9927C13 26.6114 13.8379 28.139 15.2578 28.9906C16.6776 29.8422 18.3534 29.8422 19.7797 28.9906C20.5344 28.5681 21.1164 27.8855 21.5385 27.1184C21.8711 26.5204 22.7921 25.7598 23.9626 26.4358C24.8004 26.9494 25.0499 28.0545 24.6342 28.8996C24.2184 29.6667 23.9626 30.5183 23.9626 31.3634C23.9626 32.982 24.8004 34.5097 26.2203 35.3613C27.6402 36.2129 29.316 36.2129 30.7422 35.3613C32.1621 34.5097 33 32.982 33 31.3634C33 29.7447 32.1621 28.217 30.7422 27.3654C29.9875 26.9429 29.1497 26.7674 28.2287 26.7674C27.4739 26.7674 26.4698 26.2538 26.4698 24.9797C26.4698 23.9591 27.2245 23.192 28.2287 23.192C29.0665 23.192 29.9875 23.023 30.7422 22.5939C32.1621 21.7423 33 20.2147 33 18.596C33 16.9773 32.1621 15.4497 30.7422 14.5981C30.0707 14.1755 29.2328 14 28.4845 14C27.7234 14.026 26.8855 14.195 26.2203 14.6241Z" fill="white"/>
</svg>
