<svg width="125" height="36" viewBox="0 0 125 36" fill="none" xmlns="http://www.w3.org/2000/svg">
<path d="M18.5414 2.94207C16.5501 4.11717 15.375 6.22517 15.375 8.45876C15.375 9.63386 15.8414 10.809 16.4334 11.8585C16.8999 12.8003 17.1421 14.4419 15.4916 15.2582C14.3165 15.9668 12.7915 15.4914 12.0919 14.3163C11.3832 13.3744 10.5669 12.4415 9.50843 11.7329C7.51704 10.5578 5.16685 10.5578 3.16649 11.7329C1.1751 12.908 0 15.016 0 17.2496C0 19.4832 1.1751 21.5912 3.16649 22.7663C5.15788 23.9414 7.50807 23.9414 9.50843 22.7663C10.5669 22.1832 11.3832 21.2413 11.9752 20.1828C12.4417 19.3576 13.7334 18.3081 15.375 19.241C16.5501 19.9496 16.8999 21.4745 16.3168 22.6407C15.7338 23.6992 15.375 24.8743 15.375 26.0404C15.375 28.274 16.5501 30.382 18.5414 31.5571C20.5328 32.7322 22.883 32.7322 24.8834 31.5571C26.8748 30.382 28.0499 28.274 28.0499 26.0404C28.0499 23.8068 26.8748 21.6988 24.8834 20.5237C23.8249 19.9406 22.6498 19.6984 21.3581 19.6984C20.2996 19.6984 18.8913 18.9898 18.8913 17.2316C18.8913 15.8233 19.9498 14.7648 21.3581 14.7648C22.5332 14.7648 23.8249 14.5316 24.8834 13.9396C26.8748 12.7645 28.0499 10.6565 28.0499 8.42288C28.0499 6.18929 26.8748 4.08129 24.8834 2.90619C23.9415 2.32313 22.7664 2.08093 21.7169 2.08093C20.6495 2.11681 19.4744 2.35004 18.5414 2.94207Z" fill="#127FFF"/>
<path d="M45.5327 13.6168C45.1829 13.5002 44.4742 13.3836 43.7746 13.3836C41.6576 13.3836 39.433 15.0251 39.433 17.1421V27.117H34.616V9.39182H39.1908V11.15C40.2493 9.85827 42.2407 9.03301 44.3576 9.03301C45.0663 9.03301 45.4161 9.14962 45.9992 9.14962L45.5327 13.6168ZM50.9328 0C52.5743 0 53.9827 1.29171 53.9827 3.04988C53.9827 4.80804 52.5743 6.09975 50.8162 6.09975C49.058 6.09975 47.6497 4.80804 47.6497 3.04988C47.7663 1.29171 49.1746 0 50.9328 0ZM53.283 27.117H48.466V9.39182H53.283V27.117ZM67.3662 9.04198C65.3749 9.04198 63.6077 9.75063 62.1994 10.8001V9.39182H57.508V35.9168H62.316V25.8253C63.7243 26.8838 65.2493 27.4668 67.133 27.4668C69.7164 27.4668 72.2999 26.2917 73.8248 24.4169C75.2331 22.7754 76.0584 20.6584 76.0584 18.1916C76.0494 13.0337 72.1833 9.04198 67.3662 9.04198ZM66.7832 23.1252C63.8499 23.1252 61.8496 21.1338 61.8496 18.1916C61.8496 15.2583 63.8409 13.258 66.7832 13.258C69.3666 13.258 71.358 15.4916 71.358 18.1916C71.358 21.0172 69.241 23.1252 66.7832 23.1252ZM100.233 1.05849H105.05V27.117H100.233V1.05849ZM124.417 24.3003C122.659 26.2917 119.842 27.4668 117.142 27.4668C111.859 27.4668 107.867 23.8249 107.867 18.1916C107.867 13.258 111.267 8.9164 116.55 8.9164C121.484 8.9164 125 13.0248 125 17.9584C125 18.4248 125 18.9003 124.883 19.3667H112.442C112.675 21.8335 114.675 23.5917 117.259 23.5917C119.25 23.5917 120.901 22.4166 121.717 21.6003L124.417 24.3003ZM119.95 15.967C119.833 14.4421 118.425 12.8005 116.424 12.8005C114.433 12.8005 112.782 14.3254 112.666 15.967H119.95ZM88.7333 9.04198C86.7419 9.04198 84.9748 9.75063 83.5665 10.8001V9.39182H78.9916V35.9168H83.8087V25.8253C85.217 26.8838 86.7419 27.4668 88.6257 27.4668C91.2091 27.4668 93.7925 26.2917 95.3175 24.4169C96.7258 22.7754 97.551 20.6584 97.551 18.1916C97.4165 13.0337 93.5413 9.04198 88.7333 9.04198ZM88.1413 23.1252C85.208 23.1252 83.2076 21.1338 83.2076 18.1916C83.2076 15.2583 85.199 13.258 88.1413 13.258C90.7247 13.258 92.7161 15.4916 92.7161 18.1916C92.7251 21.0172 90.6081 23.1252 88.1413 23.1252Z" fill="white"/>
</svg>
